<svg id="Agrupar_1" data-name="Agrupar 1" xmlns="http://www.w3.org/2000/svg" width="2973" height="1673" viewBox="0 0 2973 1673">
  <defs>
    <style>
      .cls-1, .cls-5 {
        font-size: 6.89px;
        text-anchor: middle;
      }

      .cls-1 {
        fill: #4c88c4;
        font-family: Philosopher;
      }

      .cls-2 {
        fill: #33a9f9;
      }

      .cls-2, .cls-3, .cls-4 {
        fill-rule: evenodd;
      }

      .cls-3, .cls-5 {
        fill: #275878;
      }

      .cls-4 {
        fill: #2d8dcf;
      }

      .cls-5 {
        font-family: DARKLINOS;
      }
    </style>
  </defs>
  <text id="Lifter" class="cls-1" transform="matrix(70.01, 1.465, -1.465, 70.001, 2010.56, 941.307)"><tspan x="0">Lifter</tspan></text>
  <path id="Forma_1" data-name="Forma 1" class="cls-2" d="M485.473,1002.25q-4.422-18.7-8.844-37.385c-47.05,23.174-81.245,50.085-80.2,78.185,2.428,65.35,194.08,99.97,194.44,98.74,0.32-1.09-151.418-32.34-152.933-85.53C437.4,1037.37,455.853,1019.24,485.473,1002.25Z"/>
  <path id="Forma_2" data-name="Forma 2" class="cls-2" d="M896.177,980.7l18.236-29.534c91.847,14.305,152.677,55.216,154.9,93.846,3.72,64.61-182.9,111.51-183.372,110.26-0.421-1.11,143.072-41.38,141.232-93.71C1026.02,1028.82,968.53,1002.03,896.177,980.7Z"/>
  <path id="Forma_3" data-name="Forma 3" class="cls-3" d="M350.049,957.311c-0.8-1.711-249.407,66.719-246.019,151.4,4.963,124.06,549.282,244.21,1014.77,117.43,153.04-41.68,277.42-93.26,277.36-153.33-0.08-88.448-269.88-151.464-272.28-145.025-2.14,5.72,208.98,60.533,206.15,134.355-3.19,83.41-275.22,143.37-468.5,161.26-325.975,30.16-693.581-37.73-700.327-132.6C156.216,1020.65,350.759,958.837,350.049,957.311Z"/>
  <g id="s1">
    <path id="Forma_10" data-name="Forma 10" class="cls-4" d="M1027.06,741.043l-30.315.045q-80.322,131.5-160.646,263,100.674-119.348,201.351-238.7Q1032.245,753.216,1027.06,741.043Z"/>
    <path id="Forma_7" data-name="Forma 7" class="cls-4" d="M1022.17,682.419c-8.14,22.224-38.013,33.273-35.825,39.372,2.28,6.353,34.4-4.937,54.105,8.773,19.27,13.4,19.82,46.762,27.84,46.955,7.99,0.193,10.21-33.343,30.25-47.728,19.72-14.146,51.44-6.243,53.33-13.107,1.92-6.983-30.03-16.467-37.79-38.605-7.95-22.7,12.35-50.755,5.99-55.694-6.06-4.706-26.73,19.818-50.54,19.872-23,.052-43.1-23.481-50.12-18.32C1011.89,629.463,1030.82,658.8,1022.17,682.419Z"/>
  </g>
  <g id="s1_copiar" data-name="s1 copiar">
    <path id="Forma_6" data-name="Forma 6" class="cls-4" d="M817.1,577.135L794.921,586Q779.785,728.74,764.649,871.479,800.1,733.653,835.555,595.827Z"/>
    <path id="Forma_10_copiar" data-name="Forma 10 copiar" class="cls-4" d="M395.473,720.6q-6.432,13.726-12.867,27.451,84.767,128.682,169.533,257.368Q487.031,863.49,421.924,721.568Z"/>
    <path id="Forma_7-2" data-name="Forma 7" class="cls-4" d="M777.837,521.4c2.238,26.179-22.641,51.309-17.577,56.419,5.275,5.323,32.3-21.1,58.561-16.55,25.671,4.45,41.877,37.759,50.035,34.192,8.138-3.557-5.366-38.341,8.055-62.216,13.2-23.48,48.824-30.405,47.5-38.2-1.343-7.927-37.938-2.486-56.129-21.123-18.655-19.111-11.383-56.864-20.1-58.85-8.306-1.892-17.6,32.478-41.53,43.7-23.118,10.839-54.389-3.409-59.033,5.076C742.648,472.935,775.457,493.582,777.837,521.4Z"/>
  </g>
  <g id="s3_copiar" data-name="s3 copiar">
    <path id="Forma_10-2" data-name="Forma 10" class="cls-4" d="M561.549,567.337l-19.691,21.3q40,141.9,79.991,283.809-18.231-148.282-36.46-296.566Z"/>
    <path id="Forma_11" data-name="Forma 11" class="cls-4" d="M553.78,550.709c-28.125,6.087-43.4,47.41-50.053,44.866-6.588-2.518,9.35-43.072-6.845-69.523-14.818-24.2-52.959-29.688-51.966-36.036,1.019-6.511,40.49.35,59.842-19.2,20.632-20.845,10.9-64.151,18.921-66.008,7.44-1.723,16.684,36.006,42.238,47.885,26.159,12.16,61.7-6.219,65.445.82,3.628,6.818-29.3,24.979-33.641,51.724-4.745,29.234,25.061,59.267,19.677,64.629C611.939,575.3,581.442,544.722,553.78,550.709Z"/>
  </g>
  <g id="s2">
    <path id="Forma_9" data-name="Forma 9" class="cls-2" d="M697.924,1036.31c20.385-.53,37.937,21.71,44.149,17.37,6.122-4.28-8.5-28.37-2.474-48.92,5.461-18.605,27.475-30.985,24.629-36.866-2.759-5.7-24.129,3.264-39.408-4.5-20.1-10.221-22.866-43.269-31.829-43.067-7.426.167-9.316,24.441-23.231,36.593-15.756,13.759-43.232,10.251-45.018,18.407C622.8,984.2,653.1,993.2,659.37,1014.2c5.314,17.8-8.7,38.87-3.949,42.2C660.492,1059.95,677.3,1036.85,697.924,1036.31Z"/>
  </g>
  <g id="s3">
    <path id="Forma_11-2" data-name="Forma 11" class="cls-4" d="M382.568,705.582c-24.545,17.375-22.294,63.361-29.736,63.643-7.366.278-8.661-45.242-35.072-64.038-24.164-17.2-63.082-6.846-64.729-13.356-1.689-6.677,39.072-16.252,49.665-42.98,11.293-28.494-15.81-66.143-8.859-71.215,6.447-4.7,30.8,27.783,60.233,28.734,30.133,0.974,56.772-31.257,63.258-26.024,6.281,5.068-17.936,36.021-11.149,63.512,7.419,30.051,48.383,46.714,45.4,54.075C448.563,705.4,406.71,688.493,382.568,705.582Z"/>
  </g>
  <text id="Arte_e_Cultura" data-name="Arte e Cultura" class="cls-5" transform="translate(2122.053 1152.925) scale(14.616 14.614)"><tspan x="0">Arte e Cultura</tspan></text>
</svg>
