<svg id="Agrupar_1" data-name="Agrupar 1" xmlns="http://www.w3.org/2000/svg" width="1348" height="1348" viewBox="0 0 1348 1348">
  <defs>
    <style>
      .cls-1 {
        font-size: 6.89px;
        fill: #4c88c4;
        text-anchor: middle;
        font-family: DARKLINOS;
      }

      .cls-2 {
        fill: #33a9f9;
      }

      .cls-2, .cls-3, .cls-4 {
        fill-rule: evenodd;
      }

      .cls-3 {
        fill: #275878;
      }

      .cls-4 {
        fill: #2d8dcf;
      }
    </style>
  </defs>
  <text id="Lifter" class="cls-1" transform="matrix(29.411, 0.616, -0.616, 29.407, 629.887, 1167.391)"><tspan x="0">Lifter</tspan></text>
  <path id="Forma_1" data-name="Forma 1" class="cls-2" d="M409.473,725.247l-8.844-37.382c-47.05,23.174-81.245,50.084-80.2,78.182,2.428,65.351,194.08,99.978,194.44,98.747,0.32-1.1-151.418-32.346-152.933-85.538C361.4,760.37,379.853,742.24,409.473,725.247Z"/>
  <path id="Forma_2" data-name="Forma 2" class="cls-2" d="M820.177,703.7l18.236-29.534c91.845,14.305,152.675,55.221,154.9,93.847,3.717,64.608-182.9,111.514-183.373,110.261-0.421-1.108,143.068-41.379,141.229-93.714C950.016,751.823,892.529,725.032,820.177,703.7Z"/>
  <path id="Forma_3" data-name="Forma 3" class="cls-3" d="M274.049,680.311c-0.8-1.711-249.407,66.718-246.019,151.395,4.963,124.06,549.282,244.214,1014.77,117.435,153.04-41.683,277.42-93.266,277.36-153.328-0.08-88.451-269.88-151.467-272.28-145.028-2.14,5.72,208.98,60.533,206.15,134.354-3.19,83.407-275.216,143.37-468.5,161.257C459.557,976.562,91.951,908.67,85.2,813.8,80.216,743.647,274.759,681.837,274.049,680.311Z"/>
  <g id="s1">
    <path id="Forma_10" data-name="Forma 10" class="cls-4" d="M951.058,464.043l-30.313.045-160.646,263,201.348-238.7Z"/>
    <path id="Forma_7" data-name="Forma 7" class="cls-4" d="M946.17,405.419c-8.137,22.224-38.013,33.273-35.825,39.372,2.28,6.353,34.4-4.937,54.109,8.773,19.263,13.4,19.815,46.762,27.833,46.955,7.993,0.193,10.213-33.343,30.253-47.728,19.72-14.146,51.44-6.243,53.33-13.107,1.92-6.983-30.03-16.467-37.79-38.605-7.95-22.7,12.35-50.755,5.99-55.694-6.06-4.706-26.73,19.818-50.536,19.872-23,.052-43.105-23.481-50.126-18.32C935.89,352.463,954.816,381.8,946.17,405.419Z"/>
  </g>
  <g id="s1_copiar" data-name="s1 copiar">
    <path id="Forma_6" data-name="Forma 6" class="cls-4" d="M741.1,300.135L718.921,309q-15.137,142.739-30.272,285.477Q724.1,456.653,759.555,318.827Z"/>
    <path id="Forma_10_copiar" data-name="Forma 10 copiar" class="cls-4" d="M319.473,443.6q-6.432,13.726-12.867,27.451L476.139,728.415,345.924,444.568Z"/>
    <path id="Forma_7-2" data-name="Forma 7" class="cls-4" d="M701.837,244.4c2.238,26.179-22.641,51.309-17.577,56.419,5.275,5.323,32.3-21.1,58.561-16.55,25.671,4.45,41.877,37.759,50.035,34.192,8.138-3.557-5.366-38.341,8.055-62.216,13.2-23.48,48.824-30.405,47.5-38.2-1.343-7.927-37.938-2.486-56.13-21.123-18.654-19.111-11.382-56.864-20.1-58.85-8.306-1.892-17.6,32.478-41.53,43.7-23.118,10.84-54.389-3.408-59.033,5.077C666.648,195.935,699.457,216.582,701.837,244.4Z"/>
  </g>
  <g id="s3_copiar" data-name="s3 copiar">
    <path id="Forma_10-2" data-name="Forma 10" class="cls-4" d="M485.549,290.337l-19.691,21.3q40,141.9,79.991,283.809-18.231-148.282-36.46-296.566Z"/>
    <path id="Forma_11" data-name="Forma 11" class="cls-4" d="M477.78,273.709c-28.125,6.087-43.4,47.41-50.053,44.866-6.588-2.518,9.35-43.072-6.845-69.523-14.818-24.2-52.959-29.688-51.966-36.036,1.019-6.511,40.49.35,59.842-19.2,20.631-20.845,10.9-64.151,18.921-66.008,7.44-1.723,16.684,36.006,42.238,47.885,26.159,12.16,61.7-6.219,65.445.82,3.628,6.817-29.3,24.979-33.642,51.724-4.744,29.234,25.062,59.267,19.678,64.629C535.939,298.3,505.442,267.722,477.78,273.709Z"/>
  </g>
  <g id="s2">
    <path id="Forma_9" data-name="Forma 9" class="cls-2" d="M621.924,759.311c20.385-.535,37.937,21.708,44.149,17.365,6.122-4.279-8.5-28.367-2.474-48.911,5.461-18.61,27.475-30.99,24.629-36.871-2.759-5.7-24.129,3.264-39.408-4.5-20.1-10.221-22.866-43.269-31.829-43.067-7.426.167-9.317,24.441-23.231,36.593-15.756,13.759-43.232,10.251-45.018,18.407C546.8,707.2,577.1,716.2,583.37,737.2c5.314,17.8-8.7,38.872-3.949,42.2C584.492,782.949,601.295,759.853,621.924,759.311Z"/>
  </g>
  <g id="s3">
    <path id="Forma_11-2" data-name="Forma 11" class="cls-4" d="M306.568,428.582c-24.545,17.375-22.294,63.361-29.736,63.643-7.366.278-8.661-45.242-35.072-64.038-24.164-17.2-63.082-6.846-64.729-13.356-1.689-6.677,39.072-16.252,49.665-42.98,11.293-28.494-15.81-66.143-8.859-71.215,6.447-4.7,30.8,27.783,60.233,28.734,30.133,0.974,56.772-31.257,63.258-26.024,6.281,5.068-17.936,36.021-11.149,63.512,7.418,30.051,48.383,46.714,45.4,54.075C372.563,428.4,330.71,411.493,306.568,428.582Z"/>
  </g>
</svg>
